name C:\Users\u0101727\Documents\MyRepositories\paper-ad\predictivesimulations_2d/Results/PredSim_2D/IK_c16.mot
datacolumns 11
datarows 21
range 0.13200000 0.17200000
endheader
time	pelvis_tilt	pelvis_tx	pelvis_ty	hip_flexion_l	hip_flexion_r	knee_angle_l	knee_angle_r	ankle_angle_l	ankle_angle_r	lumbar_extension	
          0.13200000	        -22.76866019	          0.18004750	          0.85887889	         21.72069624	         21.69607504	        -51.85539551	        -51.85861684	         -5.35279559	         -5.38226047	         -7.08204344	
          0.13400000	        -22.74010727	          0.18296659	          0.85904438	         21.62961179	         21.60751398	        -51.83310678	        -51.83905486	         -5.40278508	         -5.43255356	         -7.05939280	
          0.13600000	        -22.70810912	          0.18585659	          0.85924210	         21.54189743	         21.52225106	        -51.81284915	        -51.82131817	         -5.45104697	         -5.48170504	         -7.04819470	
          0.13800000	        -22.67331157	          0.18871383	          0.85946678	         21.45901344	         21.44172366	        -51.79495335	        -51.80572752	         -5.49358488	         -5.52544394	         -7.04844946	
          0.14000000	        -22.63632460	          0.19153481	          0.85971333	         21.38233541	         21.36729735	        -51.77974764	        -51.79259747	         -5.52641634	         -5.55978543	         -7.06015738	
          0.14200000	        -22.59773070	          0.19431622	          0.85997713	         21.31321382	         21.30031513	        -51.76751673	        -51.78221297	         -5.54786434	         -5.58273975	         -7.08331964	
          0.14400000	        -22.55805600	          0.19705503	          0.86025369	         21.25293637	         21.24205507	        -51.75845758	        -51.77478862	         -5.56031566	         -5.59598691	         -7.11793680	
          0.14600000	        -22.51768738	          0.19974906	          0.86053878	         21.20247088	         21.19348939	        -51.75268130	        -51.77043500	         -5.56705355	         -5.60284299	         -7.16400838	
          0.14800000	        -22.47717303	          0.20239725	          0.86082826	         21.16263195	         21.15544862	        -51.75023195	        -51.76915406	         -5.56934082	         -5.60546328	         -7.22104734	
          0.15000000	        -22.43708726	          0.20499964	          0.86111851	         21.13401885	         21.12854948	        -51.75121281	        -51.77111133	         -5.56681645	         -5.60396752	         -7.28827028	
          0.15200000	        -22.39816805	          0.20755711	          0.86140644	         21.11724021	         21.11342546	        -51.75586456	        -51.77662659	         -5.55876556	         -5.59732927	         -7.36447141	
          0.15400000	        -22.36064032	          0.21007167	          0.86169007	         21.11206759	         21.10987366	        -51.76423529	        -51.78571529	         -5.54470071	         -5.58479535	         -7.44886472	
          0.15600000	        -22.32464913	          0.21254596	          0.86196781	         21.11805167	         21.11746858	        -51.77624899	        -51.79828283	         -5.52473481	         -5.56655814	         -7.54063847	
          0.15800000	        -22.29080895	          0.21498286	          0.86223747	         21.13518754	         21.13622789	        -51.79183680	        -51.81427372	         -5.49996598	         -5.54368836	         -7.63828642	
          0.16000000	        -22.25975759	          0.21738599	          0.86249678	         21.16331448	         21.16600616	        -51.81081299	        -51.83353227	         -5.47182203	         -5.51742811	         -7.74010226	
          0.16200000	        -22.23275484	          0.21975980	          0.86274247	         21.20268419	         21.20706604	        -51.83284566	        -51.85574709	         -5.44143466	         -5.48901093	         -7.84336547	
          0.16400000	        -22.21090874	          0.22210967	          0.86297133	         21.25314095	         21.25924668	        -51.85742168	        -51.88039232	         -5.40969998	         -5.45970632	         -7.94534454	
          0.16600000	        -22.19484682	          0.22444123	          0.86318074	         21.31397361	         21.32185946	        -51.88400008	        -51.90696341	         -5.37759843	         -5.43082110	         -8.04388872	
          0.16800000	        -22.18506016	          0.22675985	          0.86336820	         21.38441441	         21.39413243	        -51.91212223	        -51.93503172	         -5.34613721	         -5.40291250	         -8.13708496	
          0.17000000	        -22.18186276	          0.22907072	          0.86353133	         21.46353308	         21.47513688	        -51.94133038	        -51.96421567	         -5.31571384	         -5.37516983	         -8.22329478	
          0.17200000	        -22.18534276	          0.23137895	          0.86366796	         21.55017850	         21.56372380	        -51.97117812	        -51.99415101	         -5.28593667	         -5.34588095	         -8.30120653	
